<svg xmlns="http://www.w3.org/2000/svg" xmlns:xlink="http://www.w3.org/1999/xlink" viewBox="0 0 500 500" width="528" height="528" preserveAspectRatio="xMidYMid meet" style="width: 100%; height: 100%; transform: translate3d(0px, 0px, 0px); content-visibility: visible; background-color: transparent;"><defs><clipPath id="__lottie_element_20"><rect width="500" height="500" x="0" y="0"/></clipPath><g id="__lottie_element_22"><g transform="matrix(3.256345510482788,0,0,3.256345510482788,249.1513214111328,250)" opacity="1" style="display: block;"><g opacity="1" transform="matrix(1,0,0,1,0,0)"><path fill="rgb(65,239,152)" fill-opacity="1" d=" M65.51300048828125,0 C65.51300048828125,36.18199920654297 36.18199920654297,65.51300048828125 0,65.51300048828125 C-36.18199920654297,65.51300048828125 -65.51300048828125,36.18199920654297 -65.51300048828125,0 C-65.51300048828125,-36.18199920654297 -36.18199920654297,-65.51300048828125 0,-65.51300048828125 C36.18199920654297,-65.51300048828125 65.51300048828125,-36.18199920654297 65.51300048828125,0z"/></g></g></g><mask id="__lottie_element_22_1" mask-type="alpha"><use xmlns:ns1="http://www.w3.org/1999/xlink" ns1:href="#__lottie_element_22"/></mask></defs><g clip-path="url(#__lottie_element_20)"><g transform="matrix(3.2699999809265137,0,0,3.2699999809265137,258.23211669921875,250)" opacity="1" style="display: block;"><g opacity="1" transform="matrix(1,0,0,1,0,0)"><path fill="rgb(65,239,152)" fill-opacity="1" d=" M-38.76100158691406,-2.1429998874664307 C-38.76100158691406,-2.1429998874664307 -29.472999572753906,-11.432000160217285 -29.472999572753906,-11.432000160217285 C-29.472999572753906,-11.432000160217285 -7.928999900817871,10.112000465393066 -7.928999900817871,10.112000465393066 C-7.928999900817871,10.112000465393066 30.187999725341797,-28.222999572753906 30.187999725341797,-28.222999572753906 C30.187999725341797,-28.222999572753906 38.76100158691406,-18.93400001525879 38.76100158691406,-18.93400001525879 C38.76100158691406,-18.93400001525879 -8.038000106811523,28.222999572753906 -8.038000106811523,28.222999572753906 C-8.038000106811523,28.222999572753906 -38.76100158691406,-2.1429998874664307 -38.76100158691406,-2.1429998874664307z"/></g></g><g transform="matrix(2.6080994606018066,1.9724901914596558,-1.9724901914596558,2.6080994606018066,237,250)" opacity="1" style="display: block;"><g opacity="1" transform="matrix(1,0,0,0.9300000071525574,0,0.009450003504753113)"><g opacity="1" transform="matrix(0.7071067690849304,-0.7071067690849304,0.7071067690849304,0.7071067690849304,1.757359504699707,4.242640495300293)"><path stroke-linecap="round" stroke-linejoin="miter" fill-opacity="0" stroke-miterlimit="4" stroke="rgb(64,238,151)" stroke-opacity="1" stroke-width="0" d="M0 0"/></g><g opacity="1" transform="matrix(0,-1,1,0,6,5.999999523162842)"><path stroke-linecap="round" stroke-linejoin="miter" fill-opacity="0" stroke-miterlimit="4" stroke="rgb(64,238,151)" stroke-opacity="1" stroke-width="0" d="M0 0"/></g><g opacity="1" transform="matrix(-0.7071067690849304,-0.7071067690849304,0.7071067690849304,-0.7071067690849304,10.242640495300293,4.242640495300293)"><path stroke-linecap="round" stroke-linejoin="miter" fill-opacity="0" stroke-miterlimit="4" stroke="rgb(64,238,151)" stroke-opacity="1" stroke-width="0" d="M0 0"/></g><g opacity="1" transform="matrix(-1,0,0,-1,12,0)"><path stroke-linecap="round" stroke-linejoin="miter" fill-opacity="0" stroke-miterlimit="4" stroke="rgb(64,238,151)" stroke-opacity="1" stroke-width="0" d="M0 0"/></g><g opacity="1" transform="matrix(-0.7071067690849304,0.7071067690849304,-0.7071067690849304,-0.7071067690849304,10.242640495300293,-4.242640495300293)"><path stroke-linecap="round" stroke-linejoin="miter" fill-opacity="0" stroke-miterlimit="4" stroke="rgb(64,238,151)" stroke-opacity="1" stroke-width="0" d="M0 0"/></g><g opacity="1" transform="matrix(0,1,-1,0,6,-5.999999523162842)"><path stroke-linecap="round" stroke-linejoin="miter" fill-opacity="0" stroke-miterlimit="4" stroke="rgb(64,238,151)" stroke-opacity="1" stroke-width="0" d="M0 0"/></g><g opacity="1" transform="matrix(0.7071067690849304,0.7071067690849304,-0.7071067690849304,0.7071067690849304,1.757359504699707,-4.242640495300293)"><path stroke-linecap="round" stroke-linejoin="miter" fill-opacity="0" stroke-miterlimit="4" stroke="rgb(64,238,151)" stroke-opacity="1" stroke-width="0" d="M0 0"/></g><g opacity="1" transform="matrix(1,0,0,1,0,0)"><path stroke-linecap="round" stroke-linejoin="miter" fill-opacity="0" stroke-miterlimit="4" stroke="rgb(64,238,151)" stroke-opacity="1" stroke-width="0" d="M0 0"/></g></g></g><g transform="matrix(3.256345510482788,0,0,3.256345510482788,249.1513214111328,250)" opacity="1" style="display: block;"><g opacity="1" transform="matrix(1,0,0,1,0,0)"><path fill="rgb(65,239,152)" fill-opacity="1" d=" M65.51300048828125,0 C65.51300048828125,36.18199920654297 36.18199920654297,65.51300048828125 0,65.51300048828125 C-36.18199920654297,65.51300048828125 -65.51300048828125,36.18199920654297 -65.51300048828125,0 C-65.51300048828125,-36.18199920654297 -36.18199920654297,-65.51300048828125 0,-65.51300048828125 C36.18199920654297,-65.51300048828125 65.51300048828125,-36.18199920654297 65.51300048828125,0z"/></g></g><g mask="url(#__lottie_element_22_1)" style="display: block;"><g transform="matrix(3.2699999809265137,0,0,3.2699999809265137,258.23211669921875,250)" opacity="1"><g opacity="1" transform="matrix(1,0,0,1,0,0)"><path fill="rgb(255,255,255)" fill-opacity="1" d=" M-38.76100158691406,-2.1429998874664307 C-38.76100158691406,-2.1429998874664307 -29.472999572753906,-11.432000160217285 -29.472999572753906,-11.432000160217285 C-29.472999572753906,-11.432000160217285 -7.928999900817871,10.112000465393066 -7.928999900817871,10.112000465393066 C-7.928999900817871,10.112000465393066 30.187999725341797,-28.222999572753906 30.187999725341797,-28.222999572753906 C30.187999725341797,-28.222999572753906 38.76100158691406,-18.93400001525879 38.76100158691406,-18.93400001525879 C38.76100158691406,-18.93400001525879 -8.038000106811523,28.222999572753906 -8.038000106811523,28.222999572753906 C-8.038000106811523,28.222999572753906 -38.76100158691406,-2.1429998874664307 -38.76100158691406,-2.1429998874664307z"/></g></g></g></g></svg>